<mxfile host="app.diagrams.net" modified="2022-10-06T12:55:47.123Z" agent="5.0 (Macintosh)" etag="X1i6fq38YEi84_DS7ajP" version="20.4.0" type="github">
  <diagram id="C5RBs43oDa-KdzZeNtuy" name="Page-1">
    <mxGraphModel dx="1746" dy="947" grid="1" gridSize="10" guides="1" tooltips="1" connect="1" arrows="1" fold="1" page="1" pageScale="1" pageWidth="827" pageHeight="1169" math="0" shadow="0">
      <root>
        <mxCell id="WIyWlLk6GJQsqaUBKTNV-0" />
        <mxCell id="WIyWlLk6GJQsqaUBKTNV-1" parent="WIyWlLk6GJQsqaUBKTNV-0" />
        <mxCell id="WIyWlLk6GJQsqaUBKTNV-2" value="" style="rounded=0;html=1;jettySize=auto;orthogonalLoop=1;fontSize=11;endArrow=block;endFill=0;endSize=8;strokeWidth=1;shadow=0;labelBackgroundColor=none;edgeStyle=orthogonalEdgeStyle;entryX=0.5;entryY=0;entryDx=0;entryDy=0;" parent="WIyWlLk6GJQsqaUBKTNV-1" source="WIyWlLk6GJQsqaUBKTNV-3" target="fR_orMGhUJ-JH97Z2zdH-4" edge="1">
          <mxGeometry relative="1" as="geometry">
            <mxPoint x="196" y="50" as="targetPoint" />
          </mxGeometry>
        </mxCell>
        <mxCell id="WIyWlLk6GJQsqaUBKTNV-3" value="request URL" style="rounded=1;whiteSpace=wrap;html=1;fontSize=12;glass=0;strokeWidth=1;shadow=0;arcSize=23;" parent="WIyWlLk6GJQsqaUBKTNV-1" vertex="1">
          <mxGeometry x="360" y="70" width="101" height="40" as="geometry" />
        </mxCell>
        <mxCell id="fR_orMGhUJ-JH97Z2zdH-4" value="response Object" style="shape=parallelogram;perimeter=parallelogramPerimeter;whiteSpace=wrap;html=1;fixedSize=1;" vertex="1" parent="WIyWlLk6GJQsqaUBKTNV-1">
          <mxGeometry x="341" y="150" width="120" height="60" as="geometry" />
        </mxCell>
        <mxCell id="fR_orMGhUJ-JH97Z2zdH-77" style="edgeStyle=orthogonalEdgeStyle;rounded=0;orthogonalLoop=1;jettySize=auto;html=1;exitX=0.5;exitY=1;exitDx=0;exitDy=0;entryX=0.5;entryY=0;entryDx=0;entryDy=0;" edge="1" parent="WIyWlLk6GJQsqaUBKTNV-1" source="fR_orMGhUJ-JH97Z2zdH-5" target="fR_orMGhUJ-JH97Z2zdH-75">
          <mxGeometry relative="1" as="geometry" />
        </mxCell>
        <mxCell id="fR_orMGhUJ-JH97Z2zdH-5" value="make_df" style="swimlane;" vertex="1" parent="WIyWlLk6GJQsqaUBKTNV-1">
          <mxGeometry x="50" y="260" width="760" height="790" as="geometry" />
        </mxCell>
        <mxCell id="fR_orMGhUJ-JH97Z2zdH-71" style="edgeStyle=orthogonalEdgeStyle;curved=1;orthogonalLoop=1;jettySize=auto;html=1;exitX=0.5;exitY=1;exitDx=0;exitDy=0;entryX=0.5;entryY=0;entryDx=0;entryDy=0;shape=arrow;fillColor=#f8cecc;strokeColor=#b85450;" edge="1" parent="fR_orMGhUJ-JH97Z2zdH-5" source="fR_orMGhUJ-JH97Z2zdH-8" target="fR_orMGhUJ-JH97Z2zdH-67">
          <mxGeometry relative="1" as="geometry" />
        </mxCell>
        <mxCell id="fR_orMGhUJ-JH97Z2zdH-8" value="make_raw_data" style="swimlane;" vertex="1" parent="fR_orMGhUJ-JH97Z2zdH-5">
          <mxGeometry x="24" y="170" width="680" height="300" as="geometry" />
        </mxCell>
        <mxCell id="fR_orMGhUJ-JH97Z2zdH-27" value="response Object" style="shape=parallelogram;perimeter=parallelogramPerimeter;whiteSpace=wrap;html=1;fixedSize=1;" vertex="1" parent="fR_orMGhUJ-JH97Z2zdH-8">
          <mxGeometry x="267" y="40" width="123" height="30" as="geometry" />
        </mxCell>
        <mxCell id="fR_orMGhUJ-JH97Z2zdH-28" style="edgeStyle=orthogonalEdgeStyle;rounded=0;orthogonalLoop=1;jettySize=auto;html=1;exitX=0.5;exitY=1;exitDx=0;exitDy=0;" edge="1" parent="fR_orMGhUJ-JH97Z2zdH-8" source="fR_orMGhUJ-JH97Z2zdH-27" target="fR_orMGhUJ-JH97Z2zdH-27">
          <mxGeometry relative="1" as="geometry" />
        </mxCell>
        <mxCell id="fR_orMGhUJ-JH97Z2zdH-62" style="edgeStyle=orthogonalEdgeStyle;rounded=0;orthogonalLoop=1;jettySize=auto;html=1;exitX=0.5;exitY=1;exitDx=0;exitDy=0;entryX=0.462;entryY=0;entryDx=0;entryDy=0;entryPerimeter=0;" edge="1" parent="fR_orMGhUJ-JH97Z2zdH-8" source="fR_orMGhUJ-JH97Z2zdH-29" target="fR_orMGhUJ-JH97Z2zdH-51">
          <mxGeometry relative="1" as="geometry" />
        </mxCell>
        <mxCell id="fR_orMGhUJ-JH97Z2zdH-29" value="error_check" style="rhombus;whiteSpace=wrap;html=1;" vertex="1" parent="fR_orMGhUJ-JH97Z2zdH-8">
          <mxGeometry x="276.5" y="100" width="104" height="45" as="geometry" />
        </mxCell>
        <mxCell id="fR_orMGhUJ-JH97Z2zdH-30" value="titles.append(title)" style="rounded=0;whiteSpace=wrap;html=1;" vertex="1" parent="fR_orMGhUJ-JH97Z2zdH-8">
          <mxGeometry x="40" y="230" width="120" height="40" as="geometry" />
        </mxCell>
        <mxCell id="fR_orMGhUJ-JH97Z2zdH-33" value="dates.append(date)" style="rounded=0;whiteSpace=wrap;html=1;" vertex="1" parent="fR_orMGhUJ-JH97Z2zdH-8">
          <mxGeometry x="360" y="230" width="120" height="40" as="geometry" />
        </mxCell>
        <mxCell id="fR_orMGhUJ-JH97Z2zdH-32" value="links.append(url)" style="rounded=0;whiteSpace=wrap;html=1;" vertex="1" parent="fR_orMGhUJ-JH97Z2zdH-8">
          <mxGeometry x="200" y="230" width="120" height="40" as="geometry" />
        </mxCell>
        <mxCell id="fR_orMGhUJ-JH97Z2zdH-38" value="title" style="shape=parallelogram;perimeter=parallelogramPerimeter;whiteSpace=wrap;html=1;fixedSize=1;" vertex="1" parent="fR_orMGhUJ-JH97Z2zdH-8">
          <mxGeometry x="40" y="185" width="123" height="30" as="geometry" />
        </mxCell>
        <mxCell id="fR_orMGhUJ-JH97Z2zdH-63" style="edgeStyle=orthogonalEdgeStyle;rounded=0;orthogonalLoop=1;jettySize=auto;html=1;exitX=0.5;exitY=1;exitDx=0;exitDy=0;entryX=0.5;entryY=0;entryDx=0;entryDy=0;" edge="1" parent="fR_orMGhUJ-JH97Z2zdH-8" source="fR_orMGhUJ-JH97Z2zdH-40" target="fR_orMGhUJ-JH97Z2zdH-32">
          <mxGeometry relative="1" as="geometry" />
        </mxCell>
        <mxCell id="fR_orMGhUJ-JH97Z2zdH-40" value="url" style="shape=parallelogram;perimeter=parallelogramPerimeter;whiteSpace=wrap;html=1;fixedSize=1;" vertex="1" parent="fR_orMGhUJ-JH97Z2zdH-8">
          <mxGeometry x="198.5" y="180" width="123" height="30" as="geometry" />
        </mxCell>
        <mxCell id="fR_orMGhUJ-JH97Z2zdH-64" style="edgeStyle=orthogonalEdgeStyle;rounded=0;orthogonalLoop=1;jettySize=auto;html=1;exitX=0.5;exitY=1;exitDx=0;exitDy=0;entryX=0.5;entryY=0;entryDx=0;entryDy=0;" edge="1" parent="fR_orMGhUJ-JH97Z2zdH-8" source="fR_orMGhUJ-JH97Z2zdH-39" target="fR_orMGhUJ-JH97Z2zdH-33">
          <mxGeometry relative="1" as="geometry" />
        </mxCell>
        <mxCell id="fR_orMGhUJ-JH97Z2zdH-39" value="date" style="shape=parallelogram;perimeter=parallelogramPerimeter;whiteSpace=wrap;html=1;fixedSize=1;" vertex="1" parent="fR_orMGhUJ-JH97Z2zdH-8">
          <mxGeometry x="360" y="180" width="123" height="30" as="geometry" />
        </mxCell>
        <mxCell id="fR_orMGhUJ-JH97Z2zdH-66" style="edgeStyle=orthogonalEdgeStyle;rounded=0;orthogonalLoop=1;jettySize=auto;html=1;exitX=0.5;exitY=1;exitDx=0;exitDy=0;entryX=0.5;entryY=0;entryDx=0;entryDy=0;" edge="1" parent="fR_orMGhUJ-JH97Z2zdH-8" source="fR_orMGhUJ-JH97Z2zdH-42" target="fR_orMGhUJ-JH97Z2zdH-34">
          <mxGeometry relative="1" as="geometry" />
        </mxCell>
        <mxCell id="fR_orMGhUJ-JH97Z2zdH-42" value="content" style="shape=parallelogram;perimeter=parallelogramPerimeter;whiteSpace=wrap;html=1;fixedSize=1;" vertex="1" parent="fR_orMGhUJ-JH97Z2zdH-8">
          <mxGeometry x="520" y="180" width="123" height="30" as="geometry" />
        </mxCell>
        <mxCell id="fR_orMGhUJ-JH97Z2zdH-47" value="" style="endArrow=classic;html=1;rounded=0;exitX=0.5;exitY=1;exitDx=0;exitDy=0;entryX=0.5;entryY=0;entryDx=0;entryDy=0;" edge="1" parent="fR_orMGhUJ-JH97Z2zdH-8" source="fR_orMGhUJ-JH97Z2zdH-27" target="fR_orMGhUJ-JH97Z2zdH-29">
          <mxGeometry width="50" height="50" relative="1" as="geometry">
            <mxPoint x="466" y="90" as="sourcePoint" />
            <mxPoint x="516" y="40" as="targetPoint" />
          </mxGeometry>
        </mxCell>
        <mxCell id="fR_orMGhUJ-JH97Z2zdH-51" value="" style="swimlane;startSize=0;" vertex="1" parent="fR_orMGhUJ-JH97Z2zdH-8">
          <mxGeometry x="36" y="160" width="634" height="120" as="geometry" />
        </mxCell>
        <mxCell id="fR_orMGhUJ-JH97Z2zdH-34" value="contents.append(content)" style="rounded=0;whiteSpace=wrap;html=1;" vertex="1" parent="fR_orMGhUJ-JH97Z2zdH-51">
          <mxGeometry x="470" y="70" width="150" height="40" as="geometry" />
        </mxCell>
        <mxCell id="fR_orMGhUJ-JH97Z2zdH-57" value="" style="endArrow=classic;html=1;rounded=0;exitX=0.5;exitY=1;exitDx=0;exitDy=0;" edge="1" parent="fR_orMGhUJ-JH97Z2zdH-8" source="fR_orMGhUJ-JH97Z2zdH-38" target="fR_orMGhUJ-JH97Z2zdH-30">
          <mxGeometry width="50" height="50" relative="1" as="geometry">
            <mxPoint x="196" y="110" as="sourcePoint" />
            <mxPoint x="246" y="60" as="targetPoint" />
          </mxGeometry>
        </mxCell>
        <mxCell id="fR_orMGhUJ-JH97Z2zdH-10" value="titles" style="swimlane;fontStyle=0;childLayout=stackLayout;horizontal=1;startSize=30;horizontalStack=0;resizeParent=1;resizeParentMax=0;resizeLast=0;collapsible=1;marginBottom=0;" vertex="1" parent="fR_orMGhUJ-JH97Z2zdH-5">
          <mxGeometry x="24" y="560" width="140" height="120" as="geometry" />
        </mxCell>
        <mxCell id="fR_orMGhUJ-JH97Z2zdH-11" value="Item 1" style="text;strokeColor=none;fillColor=none;align=left;verticalAlign=middle;spacingLeft=4;spacingRight=4;overflow=hidden;points=[[0,0.5],[1,0.5]];portConstraint=eastwest;rotatable=0;" vertex="1" parent="fR_orMGhUJ-JH97Z2zdH-10">
          <mxGeometry y="30" width="140" height="30" as="geometry" />
        </mxCell>
        <mxCell id="fR_orMGhUJ-JH97Z2zdH-12" value="Item 2" style="text;strokeColor=none;fillColor=none;align=left;verticalAlign=middle;spacingLeft=4;spacingRight=4;overflow=hidden;points=[[0,0.5],[1,0.5]];portConstraint=eastwest;rotatable=0;" vertex="1" parent="fR_orMGhUJ-JH97Z2zdH-10">
          <mxGeometry y="60" width="140" height="30" as="geometry" />
        </mxCell>
        <mxCell id="fR_orMGhUJ-JH97Z2zdH-13" value="Item 3" style="text;strokeColor=none;fillColor=none;align=left;verticalAlign=middle;spacingLeft=4;spacingRight=4;overflow=hidden;points=[[0,0.5],[1,0.5]];portConstraint=eastwest;rotatable=0;" vertex="1" parent="fR_orMGhUJ-JH97Z2zdH-10">
          <mxGeometry y="90" width="140" height="30" as="geometry" />
        </mxCell>
        <mxCell id="fR_orMGhUJ-JH97Z2zdH-22" value="contets" style="swimlane;fontStyle=0;childLayout=stackLayout;horizontal=1;startSize=30;horizontalStack=0;resizeParent=1;resizeParentMax=0;resizeLast=0;collapsible=1;marginBottom=0;" vertex="1" parent="fR_orMGhUJ-JH97Z2zdH-5">
          <mxGeometry x="564" y="560" width="140" height="120" as="geometry" />
        </mxCell>
        <mxCell id="fR_orMGhUJ-JH97Z2zdH-23" value="Item 1" style="text;strokeColor=none;fillColor=none;align=left;verticalAlign=middle;spacingLeft=4;spacingRight=4;overflow=hidden;points=[[0,0.5],[1,0.5]];portConstraint=eastwest;rotatable=0;" vertex="1" parent="fR_orMGhUJ-JH97Z2zdH-22">
          <mxGeometry y="30" width="140" height="30" as="geometry" />
        </mxCell>
        <mxCell id="fR_orMGhUJ-JH97Z2zdH-24" value="Item 2" style="text;strokeColor=none;fillColor=none;align=left;verticalAlign=middle;spacingLeft=4;spacingRight=4;overflow=hidden;points=[[0,0.5],[1,0.5]];portConstraint=eastwest;rotatable=0;" vertex="1" parent="fR_orMGhUJ-JH97Z2zdH-22">
          <mxGeometry y="60" width="140" height="30" as="geometry" />
        </mxCell>
        <mxCell id="fR_orMGhUJ-JH97Z2zdH-25" value="Item 3" style="text;strokeColor=none;fillColor=none;align=left;verticalAlign=middle;spacingLeft=4;spacingRight=4;overflow=hidden;points=[[0,0.5],[1,0.5]];portConstraint=eastwest;rotatable=0;" vertex="1" parent="fR_orMGhUJ-JH97Z2zdH-22">
          <mxGeometry y="90" width="140" height="30" as="geometry" />
        </mxCell>
        <mxCell id="fR_orMGhUJ-JH97Z2zdH-18" value="dates" style="swimlane;fontStyle=0;childLayout=stackLayout;horizontal=1;startSize=30;horizontalStack=0;resizeParent=1;resizeParentMax=0;resizeLast=0;collapsible=1;marginBottom=0;" vertex="1" parent="fR_orMGhUJ-JH97Z2zdH-5">
          <mxGeometry x="390" y="560" width="140" height="120" as="geometry" />
        </mxCell>
        <mxCell id="fR_orMGhUJ-JH97Z2zdH-19" value="Item 1" style="text;strokeColor=none;fillColor=none;align=left;verticalAlign=middle;spacingLeft=4;spacingRight=4;overflow=hidden;points=[[0,0.5],[1,0.5]];portConstraint=eastwest;rotatable=0;" vertex="1" parent="fR_orMGhUJ-JH97Z2zdH-18">
          <mxGeometry y="30" width="140" height="30" as="geometry" />
        </mxCell>
        <mxCell id="fR_orMGhUJ-JH97Z2zdH-20" value="Item 2" style="text;strokeColor=none;fillColor=none;align=left;verticalAlign=middle;spacingLeft=4;spacingRight=4;overflow=hidden;points=[[0,0.5],[1,0.5]];portConstraint=eastwest;rotatable=0;" vertex="1" parent="fR_orMGhUJ-JH97Z2zdH-18">
          <mxGeometry y="60" width="140" height="30" as="geometry" />
        </mxCell>
        <mxCell id="fR_orMGhUJ-JH97Z2zdH-21" value="Item 3" style="text;strokeColor=none;fillColor=none;align=left;verticalAlign=middle;spacingLeft=4;spacingRight=4;overflow=hidden;points=[[0,0.5],[1,0.5]];portConstraint=eastwest;rotatable=0;" vertex="1" parent="fR_orMGhUJ-JH97Z2zdH-18">
          <mxGeometry y="90" width="140" height="30" as="geometry" />
        </mxCell>
        <mxCell id="fR_orMGhUJ-JH97Z2zdH-14" value="links" style="swimlane;fontStyle=0;childLayout=stackLayout;horizontal=1;startSize=30;horizontalStack=0;resizeParent=1;resizeParentMax=0;resizeLast=0;collapsible=1;marginBottom=0;" vertex="1" parent="fR_orMGhUJ-JH97Z2zdH-5">
          <mxGeometry x="210" y="560" width="140" height="120" as="geometry" />
        </mxCell>
        <mxCell id="fR_orMGhUJ-JH97Z2zdH-15" value="Item 1" style="text;strokeColor=none;fillColor=none;align=left;verticalAlign=middle;spacingLeft=4;spacingRight=4;overflow=hidden;points=[[0,0.5],[1,0.5]];portConstraint=eastwest;rotatable=0;" vertex="1" parent="fR_orMGhUJ-JH97Z2zdH-14">
          <mxGeometry y="30" width="140" height="30" as="geometry" />
        </mxCell>
        <mxCell id="fR_orMGhUJ-JH97Z2zdH-16" value="Item 2" style="text;strokeColor=none;fillColor=none;align=left;verticalAlign=middle;spacingLeft=4;spacingRight=4;overflow=hidden;points=[[0,0.5],[1,0.5]];portConstraint=eastwest;rotatable=0;" vertex="1" parent="fR_orMGhUJ-JH97Z2zdH-14">
          <mxGeometry y="60" width="140" height="30" as="geometry" />
        </mxCell>
        <mxCell id="fR_orMGhUJ-JH97Z2zdH-17" value="Item 3" style="text;strokeColor=none;fillColor=none;align=left;verticalAlign=middle;spacingLeft=4;spacingRight=4;overflow=hidden;points=[[0,0.5],[1,0.5]];portConstraint=eastwest;rotatable=0;" vertex="1" parent="fR_orMGhUJ-JH97Z2zdH-14">
          <mxGeometry y="90" width="140" height="30" as="geometry" />
        </mxCell>
        <mxCell id="fR_orMGhUJ-JH97Z2zdH-35" value="post_num = start" style="rounded=0;whiteSpace=wrap;html=1;" vertex="1" parent="fR_orMGhUJ-JH97Z2zdH-5">
          <mxGeometry x="290" y="30" width="120" height="30" as="geometry" />
        </mxCell>
        <mxCell id="fR_orMGhUJ-JH97Z2zdH-36" value="if post_num &amp;lt; end" style="rhombus;whiteSpace=wrap;html=1;" vertex="1" parent="fR_orMGhUJ-JH97Z2zdH-5">
          <mxGeometry x="267.5" y="90" width="165" height="40" as="geometry" />
        </mxCell>
        <mxCell id="fR_orMGhUJ-JH97Z2zdH-43" value="" style="endArrow=classic;html=1;rounded=0;entryX=0.5;entryY=0;entryDx=0;entryDy=0;exitX=0.5;exitY=1;exitDx=0;exitDy=0;" edge="1" parent="fR_orMGhUJ-JH97Z2zdH-5" source="fR_orMGhUJ-JH97Z2zdH-35" target="fR_orMGhUJ-JH97Z2zdH-36">
          <mxGeometry width="50" height="50" relative="1" as="geometry">
            <mxPoint x="346" y="70" as="sourcePoint" />
            <mxPoint x="396" y="20" as="targetPoint" />
          </mxGeometry>
        </mxCell>
        <mxCell id="fR_orMGhUJ-JH97Z2zdH-44" value="True" style="endArrow=classic;html=1;rounded=0;exitX=0.5;exitY=1;exitDx=0;exitDy=0;" edge="1" parent="fR_orMGhUJ-JH97Z2zdH-5" source="fR_orMGhUJ-JH97Z2zdH-36">
          <mxGeometry width="50" height="50" relative="1" as="geometry">
            <mxPoint x="350" y="150" as="sourcePoint" />
            <mxPoint x="350" y="170" as="targetPoint" />
            <Array as="points" />
          </mxGeometry>
        </mxCell>
        <mxCell id="fR_orMGhUJ-JH97Z2zdH-45" value="" style="endArrow=classic;html=1;rounded=0;" edge="1" parent="fR_orMGhUJ-JH97Z2zdH-5">
          <mxGeometry width="50" height="50" relative="1" as="geometry">
            <mxPoint x="710" y="335" as="sourcePoint" />
            <mxPoint x="390" y="150" as="targetPoint" />
            <Array as="points">
              <mxPoint x="740" y="335" />
              <mxPoint x="740" y="150" />
            </Array>
          </mxGeometry>
        </mxCell>
        <mxCell id="fR_orMGhUJ-JH97Z2zdH-46" value="++post_num" style="edgeLabel;html=1;align=center;verticalAlign=middle;resizable=0;points=[];" vertex="1" connectable="0" parent="fR_orMGhUJ-JH97Z2zdH-45">
          <mxGeometry x="0.0903" y="-2" relative="1" as="geometry">
            <mxPoint as="offset" />
          </mxGeometry>
        </mxCell>
        <mxCell id="fR_orMGhUJ-JH97Z2zdH-74" style="edgeStyle=orthogonalEdgeStyle;orthogonalLoop=1;jettySize=auto;html=1;rounded=0;" edge="1" parent="fR_orMGhUJ-JH97Z2zdH-5" target="fR_orMGhUJ-JH97Z2zdH-73">
          <mxGeometry relative="1" as="geometry">
            <mxPoint x="360" y="700" as="sourcePoint" />
          </mxGeometry>
        </mxCell>
        <mxCell id="fR_orMGhUJ-JH97Z2zdH-67" value="" style="swimlane;startSize=0;" vertex="1" parent="fR_orMGhUJ-JH97Z2zdH-5">
          <mxGeometry x="10" y="530" width="710" height="170" as="geometry" />
        </mxCell>
        <mxCell id="fR_orMGhUJ-JH97Z2zdH-73" value="raw_data" style="rounded=0;whiteSpace=wrap;html=1;" vertex="1" parent="fR_orMGhUJ-JH97Z2zdH-5">
          <mxGeometry x="300" y="730" width="120" height="40" as="geometry" />
        </mxCell>
        <mxCell id="fR_orMGhUJ-JH97Z2zdH-6" value="" style="endArrow=classic;html=1;rounded=0;" edge="1" parent="WIyWlLk6GJQsqaUBKTNV-1">
          <mxGeometry width="50" height="50" relative="1" as="geometry">
            <mxPoint x="400" y="210" as="sourcePoint" />
            <mxPoint x="400" y="260" as="targetPoint" />
          </mxGeometry>
        </mxCell>
        <mxCell id="fR_orMGhUJ-JH97Z2zdH-72" value="Execute" style="text;html=1;align=center;verticalAlign=middle;resizable=0;points=[];autosize=1;strokeColor=none;fillColor=none;" vertex="1" parent="WIyWlLk6GJQsqaUBKTNV-1">
          <mxGeometry x="425" y="745" width="70" height="30" as="geometry" />
        </mxCell>
        <mxCell id="fR_orMGhUJ-JH97Z2zdH-78" style="edgeStyle=orthogonalEdgeStyle;rounded=0;orthogonalLoop=1;jettySize=auto;html=1;exitX=1;exitY=0.5;exitDx=0;exitDy=0;" edge="1" parent="WIyWlLk6GJQsqaUBKTNV-1" source="fR_orMGhUJ-JH97Z2zdH-75" target="fR_orMGhUJ-JH97Z2zdH-80">
          <mxGeometry relative="1" as="geometry">
            <mxPoint x="580" y="1100" as="targetPoint" />
          </mxGeometry>
        </mxCell>
        <mxCell id="fR_orMGhUJ-JH97Z2zdH-75" value="pd.DataFrame" style="shape=document;whiteSpace=wrap;html=1;boundedLbl=1;" vertex="1" parent="WIyWlLk6GJQsqaUBKTNV-1">
          <mxGeometry x="370" y="1080" width="120" height="40" as="geometry" />
        </mxCell>
        <mxCell id="fR_orMGhUJ-JH97Z2zdH-80" value="end" style="rounded=1;whiteSpace=wrap;html=1;" vertex="1" parent="WIyWlLk6GJQsqaUBKTNV-1">
          <mxGeometry x="600" y="1080" width="90" height="40" as="geometry" />
        </mxCell>
      </root>
    </mxGraphModel>
  </diagram>
</mxfile>
